<svg width="17" height="15" viewBox="0 0 17 15" fill="none" xmlns="http://www.w3.org/2000/svg">
  <path opacity="0.7"
    d="M12.0672 15H2.6741C2.19893 14.9833 1.68982 14.8167 1.14677 14.5C0.6716 14.1167 0.340679 13.6917 0.154006 13.225C-0.0326679 12.7583 -0.0496382 12.3333 0.103095 11.95L4.25234 1C4.62569 0.333333 5.27904 0 6.21241 0H13.9509C14.477 0 14.8758 0.183333 15.1473 0.55C15.4358 0.883333 15.4952 1.3 15.3255 1.8L12.4999 10.675C12.3811 11.075 12.1181 11.425 11.7108 11.725C11.3205 12.0083 10.9132 12.15 10.4889 12.15H1.37587C1.15525 12.2833 1.09586 12.5 1.19768 12.8C1.31647 13.0833 1.52012 13.3417 1.80861 13.575C2.11408 13.775 2.40257 13.875 2.6741 13.875H12.0672C12.3048 13.875 12.4999 13.8 12.6526 13.65C12.8393 13.5 12.9666 13.35 13.0345 13.2L16.1146 3.575L16.1655 3.25C16.1655 3.21667 16.157 3.16667 16.14 3.1C16.14 3.03333 16.14 2.99167 16.14 2.975C16.3776 3.09167 16.5813 3.23333 16.751 3.4C17.0055 3.73333 17.0649 4.15833 16.9292 4.675L14.1291 13.525C14.0103 13.9417 13.7557 14.2917 13.3654 14.575C12.9751 14.8583 12.5423 15 12.0672 15ZM4.88872 8.475C4.88872 8.575 4.9057 8.66667 4.93964 8.75C5.02449 8.83333 5.21965 8.93333 5.52511 9.05C5.88149 9.15 6.32272 9.2 6.8488 9.2C7.4767 9.13333 7.91793 9.06667 8.17248 9C8.18945 9.01667 8.2743 9.00833 8.42704 8.975C8.57977 8.925 8.74099 8.85 8.91069 8.75C9.08039 8.63333 9.19919 8.50833 9.26707 8.375C9.31798 8.20833 9.21616 8.075 8.9616 7.975C9.18222 7.79167 9.29252 7.66667 9.29252 7.6L9.36889 7.4C9.36889 7.25 9.22464 7.125 8.93615 7.025C8.64765 6.94167 8.5034 6.85 8.5034 6.75C8.5034 6.45 8.58825 6.075 8.75796 5.625C8.7919 5.49167 8.82584 5.35833 8.85978 5.225C8.91069 5.075 8.94463 4.96667 8.9616 4.9C8.99554 4.83333 9.01251 4.79167 9.01251 4.775C9.50465 4.70833 9.79315 4.59167 9.878 4.425C9.91194 4.35833 9.89497 4.30833 9.82709 4.275C9.77618 4.225 9.67436 4.19167 9.52162 4.175L9.44526 4.125C9.75072 3.875 9.95437 3.60833 10.0562 3.325C10.175 2.85833 10.0816 2.55 9.77618 2.4C9.72527 2.33333 9.6489 2.30833 9.54708 2.325C9.44526 2.325 9.28404 2.35 9.06342 2.4C8.63917 2.58333 8.3337 2.875 8.14703 3.275C7.96035 3.675 7.96884 3.96667 8.17248 4.15C8.13854 4.15 8.08763 4.16667 8.01975 4.2C7.68034 4.25 7.48518 4.35 7.43427 4.5C7.38336 4.56667 7.40882 4.625 7.51064 4.675C7.52761 4.675 7.56155 4.68333 7.61246 4.7C7.66337 4.7 7.72277 4.70833 7.79065 4.725C7.8755 4.74167 7.95187 4.75833 8.01975 4.775C7.54458 5.85833 7.19669 6.53333 6.97607 6.8C6.85728 6.88333 6.61121 6.99167 6.23787 7.125C5.77967 7.275 5.54208 7.44167 5.52511 7.625C5.45723 7.775 5.49966 7.90833 5.65239 8.025C5.26207 8.09167 5.00752 8.24167 4.88872 8.475Z"
    fill="currentColor" />
</svg>
