<svg width="20" height="20" viewBox="0 0 20 20" fill="none" xmlns="http://www.w3.org/2000/svg">
  <g clip-path="url(#clip0_1_29)">
    <path
      d="M11 5.47998C10.91 5.38212 10.8 5.30471 10.6775 5.25296C10.5551 5.20121 10.4229 5.17632 10.29 5.17998L9.71 5.17998C9.57717 5.17697 9.44522 5.20215 9.32283 5.25386C9.20045 5.30557 9.09042 5.38264 9 5.47998C8.90551 5.57259 8.83034 5.68304 8.77884 5.80491C8.72734 5.92679 8.70055 6.05767 8.7 6.18998L8.7 10.77C8.70055 10.9023 8.72734 11.0332 8.77884 11.155C8.83034 11.2769 8.90551 11.3874 9 11.48C9.09131 11.5755 9.20174 11.6507 9.32407 11.7007C9.44641 11.7507 9.57791 11.7743 9.71 11.77L10.3 11.77C10.4306 11.7741 10.5605 11.7504 10.6812 11.7004C10.8019 11.6504 10.9106 11.5752 11 11.48C11.1799 11.288 11.2769 11.0329 11.27 10.77L11.27 6.18998C11.2769 5.92701 11.1799 5.67192 11 5.47998Z"
      fill="currentColor" />
    <path
      d="M13.9 19.22C15.0893 18.7206 16.1695 17.9937 17.08 17.08C17.9873 16.1643 18.7134 15.0853 19.22 13.9C19.7449 12.6673 20.0104 11.3397 20 9.99998C20.0076 8.66049 19.7422 7.3335 19.22 6.09998C18.2068 3.70173 16.2983 1.79317 13.9 0.779978C12.6669 0.256413 11.3396 -0.0090412 10 -2.22359e-05C8.66038 -0.00904132 7.33311 0.256413 6.1 0.779978C3.70175 1.79317 1.7932 3.70173 0.780002 6.09998C0.257789 7.3335 -0.0076107 8.66049 1.47023e-06 9.99998C-0.00906612 11.3364 0.256418 12.6604 0.780002 13.89C1.28661 15.0753 2.01268 16.1543 2.92 17.07C3.83047 17.9837 4.91071 18.7106 6.1 19.21C7.33238 19.737 8.65968 20.0058 10 20C11.3396 20.009 12.6669 19.7435 13.9 19.22ZM7 17.07C6.09459 16.681 5.27286 16.1207 4.58 15.42C3.88589 14.7237 3.32948 13.9027 2.94 13C2.53489 12.0522 2.3306 11.0307 2.34 9.99998C2.33204 8.9694 2.53627 7.94821 2.94 6.99998C3.32986 6.09209 3.88994 5.26724 4.59 4.56998C5.28695 3.8839 6.10379 3.33144 7 2.93998C7.94781 2.53487 8.96929 2.33057 10 2.33998C11.0307 2.33057 12.0522 2.53487 13 2.93998C13.897 3.33443 14.7139 3.89033 15.41 4.57998C16.109 5.27428 16.669 6.09565 17.06 6.99998C17.4637 7.94822 17.668 8.9694 17.66 9.99998C17.6697 11.0307 17.4654 12.0523 17.06 13C16.6701 13.9079 16.1101 14.7327 15.41 15.43C14.7192 16.1261 13.901 16.6828 13 17.07C12.0522 17.4751 11.0307 17.6794 10 17.67C8.96929 17.6794 7.94781 17.4751 7 17.07Z"
      fill="currentColor" />
  </g>
  <defs>
    <clipPath id="clip0_1_29">
      <rect width="20" height="20" fill="white" transform="translate(20) rotate(90)" />
    </clipPath>
  </defs>
</svg>
