<svg width="16" height="16" viewBox="0 0 16 16" fill="none" xmlns="http://www.w3.org/2000/svg">
  <path opacity="0.7"
    d="M2.34667 2.34667C3.91111 0.782222 5.79556 0 8 0C10.2044 0 12.0889 0.782222 13.6533 2.34667C15.2178 3.91111 16 5.79556 16 8C16 10.2044 15.2178 12.0889 13.6533 13.6533C12.0889 15.2178 10.2044 16 8 16C5.79556 16 3.91111 15.2178 2.34667 13.6533C0.782222 12.0889 0 10.2044 0 8C0 5.79556 0.782222 3.91111 2.34667 2.34667ZM3.53333 12.4667C4.76889 13.7022 6.25778 14.32 8 14.32C9.74222 14.32 11.2311 13.7022 12.4667 12.4667C13.7022 11.2311 14.32 9.74222 14.32 8C14.32 6.25778 13.7022 4.76889 12.4667 3.53333C11.2311 2.29778 9.74222 1.68 8 1.68C6.25778 1.68 4.76889 2.29778 3.53333 3.53333C2.29778 4.76889 1.68 6.25778 1.68 8C1.68 9.74222 2.29778 11.2311 3.53333 12.4667ZM11.5467 4.45333L9.41333 9.41333L4.45333 11.5467L6.58667 6.58667L11.5467 4.45333ZM5.28 10.72L8.85333 9.17333L6.82667 7.14667L5.28 10.72Z"
    fill="currentColor" />
</svg>
