<svg width="17" height="18" viewBox="0 0 17 18" fill="none" xmlns="http://www.w3.org/2000/svg">
  <path opacity="0.7"
    d="M2.75436 0.0299003C3.09001 0.0299003 3.35656 0.129568 3.55401 0.328904C3.75145 0.528239 3.85017 0.787375 3.85017 1.10631V16.8638C3.85017 17.2027 3.75145 17.4718 3.55401 17.6711C3.35656 17.8704 3.09001 17.9701 2.75436 17.9701L1.12544 18C0.809524 18 0.542973 17.8904 0.325784 17.6711C0.108595 17.4518 0 17.1827 0 16.8638V1.13621C0 0.817276 0.108595 0.548173 0.325784 0.328904C0.542973 0.109635 0.809524 0 1.12544 0L2.75436 0.0299003ZM10.7805 9.0299L16.6742 14.8605C16.8914 15.1196 17 15.3787 17 15.6379C17 15.897 16.8914 16.1561 16.6742 16.4153L15.5192 17.6113C15.2625 17.8306 14.9959 17.9402 14.7195 17.9402C14.4431 17.9402 14.1765 17.8306 13.9199 17.6113L6.1899 9.74751C5.95296 9.52824 5.83449 9.2691 5.83449 8.9701C5.83449 8.69103 5.95296 8.43189 6.1899 8.19269L13.9199 0.328904C14.1765 0.109635 14.4431 0 14.7195 0C14.9959 0 15.2625 0.109635 15.5192 0.328904L16.6742 1.49502C16.8914 1.75415 17 2.02326 17 2.30233C17 2.60133 16.8914 2.86047 16.6742 3.07973L10.7805 9.0299Z"
    fill="currentColor" />
</svg>
