<svg width="15" height="15" viewBox="0 0 15 15" fill="none" xmlns="http://www.w3.org/2000/svg">
  <path opacity="0.7"
    d="M14.325 4.74747L15 7.27273C14.4167 7.89562 13.7083 8.3165 12.875 8.53535C12.3417 8.67003 11.6417 8.73737 10.775 8.73737C10.625 8.73737 10.4125 8.72896 10.1375 8.71212C9.8625 8.69529 9.6125 8.68266 9.3875 8.67424C9.1625 8.66582 8.95 8.66162 8.75 8.66162C7.88333 8.66162 7.18333 8.72896 6.65 8.86364C5.81667 9.06566 5.10833 9.47811 4.525 10.101C4.525 10.0673 4.5125 10.0042 4.4875 9.91162C4.4625 9.81902 4.44167 9.74747 4.425 9.69697C4.34167 9.39394 4.15 8.68687 3.85 7.57576C3.8 7.42424 3.7125 7.09175 3.5875 6.57828C3.4625 6.06481 3.35833 5.66498 3.275 5.37879C3.275 5.36195 3.1875 5.02946 3.0125 4.38131C2.8375 3.73317 2.7 3.21549 2.6 2.82828C3.16667 2.22222 3.875 1.80976 4.725 1.59091C5.25833 1.45623 5.95 1.38889 6.8 1.38889C7.03333 1.38889 7.37917 1.39731 7.8375 1.41414C8.29583 1.43098 8.63333 1.43939 8.85 1.43939C9.66667 1.47306 10.3667 1.40572 10.95 1.23737C11.8 1.01852 12.5083 0.606061 13.075 0L13.75 2.52525C13.8167 2.77778 13.9125 3.14815 14.0375 3.63636C14.1625 4.12458 14.2583 4.49495 14.325 4.74747ZM1.375 3.13131L4.3 14.1162C4.35 14.3013 4.325 14.4781 4.225 14.6465C4.125 14.8148 3.98333 14.9242 3.8 14.9747C3.61667 15.0253 3.44167 15 3.275 14.899C3.10833 14.798 3 14.6549 2.95 14.4697L0.025 3.48485C-0.025 3.29966 0 3.1229 0.1 2.95455C0.2 2.7862 0.341667 2.67677 0.525 2.62626C0.708333 2.57576 0.883333 2.60101 1.05 2.70202C1.21667 2.80303 1.325 2.94613 1.375 3.13131Z"
    fill="currentColor" />
</svg>
