<svg width="22" height="19" viewBox="0 0 22 19" fill="none" xmlns="http://www.w3.org/2000/svg">
  <path opacity="0.7"
    d="M9.31511 14.744C9.36394 14.7947 9.41278 14.8707 9.46162 14.972C9.51046 15.048 9.58371 15.124 9.68139 15.2L12.5384 18.544H4.59008C4.34589 18.544 4.12612 18.4427 3.93077 18.24C3.75984 18.0627 3.67438 17.8473 3.67438 17.594V6.65H0.817385C0.402267 6.65 0.14587 6.52333 0.0481949 6.27C-0.0738988 6.042 0.0359855 5.75067 0.377848 5.396L4.77322 0.342C4.99299 0.114 5.23718 0 5.50578 0C5.79881 0 6.04299 0.114 6.23834 0.342L10.6337 5.396C10.9756 5.75067 11.0855 6.042 10.9634 6.27C10.8901 6.52333 10.6337 6.65 10.1942 6.65H7.33719V14.744H9.31511ZM21.1826 12.35C21.5977 12.35 21.8541 12.4767 21.9518 12.73C22.0739 12.958 21.964 13.2493 21.6222 13.604L17.2268 18.658C17.0314 18.886 16.7872 19 16.4942 19C16.2012 19 15.957 18.886 15.7617 18.658L11.3663 13.604C11.0244 13.2493 10.9145 12.958 11.0366 12.73C11.1099 12.4767 11.3663 12.35 11.8058 12.35H14.6628V4.294H12.6849C12.6361 4.24333 12.5872 4.16733 12.5384 4.066C12.4407 3.914 12.3797 3.82533 12.3552 3.8L9.46162 0.494H17.4099C17.6785 0.494 17.8983 0.582667 18.0692 0.759999C18.2402 0.987999 18.3256 1.216 18.3256 1.444V12.35H21.1826Z"
    fill="currentColor" />
</svg>
