<svg width="16" height="16" viewBox="0 0 16 16" fill="none" xmlns="http://www.w3.org/2000/svg">
  <path
    d="M13.2533 5.09333C13.2711 5.04 13.3511 4.93333 13.4933 4.77333C13.5822 4.64889 13.7333 4.46222 13.9467 4.21333C14.0356 4.07111 14.1689 3.89333 14.3467 3.68C14.4533 3.52 14.5067 3.42222 14.5067 3.38667C14.5067 3.31556 14.4178 3.18222 14.24 2.98667C14.2044 2.95111 14.1422 2.88889 14.0533 2.8C13.9644 2.71111 13.8844 2.63111 13.8133 2.56C13.7422 2.48889 13.6711 2.41778 13.6 2.34667C13.2978 2.04444 13.0756 1.83111 12.9333 1.70667C12.72 1.52889 12.6044 1.44 12.5867 1.44C12.5156 1.44 12.4089 1.50222 12.2667 1.62667C12.2489 1.62667 12.1778 1.67556 12.0533 1.77333C11.9289 1.87111 11.8311 1.95556 11.76 2.02667C11.6356 2.09778 11.4489 2.24 11.2 2.45333C11.0222 2.59556 10.9067 2.68444 10.8533 2.72C10.6044 2.57778 10.4178 2.48 10.2933 2.42667C10.2578 2.40889 10.1689 2.37778 10.0267 2.33333C9.88444 2.28889 9.76889 2.25778 9.68 2.24C9.60889 1.77778 9.56444 1.42222 9.54667 1.17333C9.51111 0.817778 9.45778 0.48 9.38667 0.16C9.33333 0.0533333 9.27111 0 9.2 0H6.82667C6.73778 0 6.66667 0.106667 6.61333 0.32C6.54222 0.497778 6.48889 0.72 6.45333 0.986667C6.41778 1.18222 6.38222 1.44 6.34667 1.76C6.34667 1.84889 6.34222 1.94667 6.33333 2.05333C6.32444 2.16 6.32 2.22222 6.32 2.24C6.26667 2.25778 6.16889 2.28889 6.02667 2.33333C5.88444 2.37778 5.77778 2.41778 5.70667 2.45333C5.56444 2.48889 5.36889 2.57778 5.12 2.72C5.10222 2.70222 4.98667 2.62222 4.77333 2.48C4.68444 2.39111 4.49778 2.24 4.21333 2.02667C3.96444 1.84889 3.78667 1.71556 3.68 1.62667L3.41333 1.44C3.37778 1.44 3.24444 1.52889 3.01333 1.70667C2.71111 1.95556 2.48889 2.16889 2.34667 2.34667L1.70667 2.98667C1.52889 3.18222 1.44 3.31556 1.44 3.38667L1.49333 3.52C1.92 4 2.32 4.52444 2.69333 5.09333C2.48 5.53778 2.32 5.92889 2.21333 6.26667C2.10667 6.30222 1.94667 6.32 1.73333 6.32C1.41333 6.35556 1.16444 6.39111 0.986667 6.42667C0.773333 6.44444 0.551111 6.48889 0.32 6.56C0.106667 6.63111 0 6.71111 0 6.8V9.14667C0 9.23556 0.0533333 9.29778 0.16 9.33333C0.515556 9.45778 0.853333 9.52889 1.17333 9.54667C1.40444 9.54667 1.75111 9.58222 2.21333 9.65333C2.35556 10.1511 2.52444 10.5689 2.72 10.9067C2.72 10.9244 2.70667 10.9467 2.68 10.9733C2.65333 11 2.61778 11.04 2.57333 11.0933C2.52889 11.1467 2.48889 11.2 2.45333 11.2533C2.41778 11.3067 2.35111 11.3911 2.25333 11.5067C2.15556 11.6222 2.08 11.7156 2.02667 11.7867C1.97333 11.8756 1.90222 11.9778 1.81333 12.0933C1.72444 12.2089 1.67111 12.2844 1.65333 12.32L1.49333 12.5867C1.49333 12.6222 1.59111 12.7556 1.78667 12.9867C1.82222 13.0222 1.91111 13.1156 2.05333 13.2667C2.19556 13.4178 2.31111 13.5378 2.4 13.6267C2.61333 13.8578 2.82667 14.0711 3.04 14.2667C3.23556 14.4444 3.36 14.5333 3.41333 14.5333L3.52 14.5067L4.32 13.8667L5.12 13.28C5.49333 13.4933 5.89333 13.6533 6.32 13.76C6.35556 14.0267 6.39111 14.3733 6.42667 14.8C6.49778 15.2622 6.56 15.6089 6.61333 15.84C6.66667 15.9467 6.73778 16 6.82667 16H9.2C9.25333 16 9.32444 15.8933 9.41333 15.68C9.43111 15.6267 9.47556 15.3956 9.54667 14.9867L9.62667 14.24C9.62667 14.1867 9.63111 14.1289 9.64 14.0667C9.64889 14.0044 9.65778 13.9556 9.66667 13.92C9.67556 13.8844 9.68 13.8489 9.68 13.8133C9.68 13.7778 9.68 13.7511 9.68 13.7333C9.91111 13.68 10.1156 13.6178 10.2933 13.5467C10.5422 13.44 10.7378 13.3511 10.88 13.28C10.8978 13.28 11.0044 13.36 11.2 13.52C11.4489 13.6978 11.6356 13.84 11.76 13.9467C11.8311 13.9822 11.9244 14.0489 12.04 14.1467C12.1556 14.2444 12.2489 14.3111 12.32 14.3467C12.4622 14.4711 12.5511 14.5333 12.5867 14.5333C12.6578 14.5333 12.7911 14.4444 12.9867 14.2667C13.1289 14.1422 13.3511 13.9289 13.6533 13.6267L14.2933 12.9867C14.4711 12.7911 14.56 12.6578 14.56 12.5867L14.5067 12.4533C14.0089 11.8667 13.6 11.3422 13.28 10.88C13.5111 10.4533 13.6622 10.0622 13.7333 9.70667C13.7689 9.70667 13.8133 9.70222 13.8667 9.69333C13.92 9.68444 13.9867 9.67556 14.0667 9.66667C14.1467 9.65778 14.2133 9.65333 14.2667 9.65333L15.0133 9.57333C15.3156 9.52 15.5467 9.46667 15.7067 9.41333C15.9022 9.32444 16 9.25333 16 9.2V6.82667C16 6.72 15.9467 6.65778 15.84 6.64C15.5556 6.55111 15.2178 6.48889 14.8267 6.45333C14.5778 6.43556 14.2222 6.39111 13.76 6.32C13.6533 5.89333 13.4844 5.48444 13.2533 5.09333ZM8.93333 10.2133C8.66667 10.3378 8.35556 10.4 8 10.4C7.64444 10.4 7.33333 10.3378 7.06667 10.2133C6.78222 10.0711 6.52444 9.89333 6.29333 9.68C6.08 9.44889 5.90222 9.19111 5.76 8.90667C5.63556 8.56889 5.57333 8.25778 5.57333 7.97333C5.57333 7.70667 5.63556 7.40444 5.76 7.06667C5.90222 6.76444 6.08 6.50667 6.29333 6.29333C6.48889 6.09778 6.74667 5.92889 7.06667 5.78667C7.33333 5.66222 7.64444 5.6 8 5.6C8.35556 5.6 8.66667 5.66222 8.93333 5.78667C9.25333 5.92889 9.51111 6.09778 9.70667 6.29333C9.92 6.54222 10.0889 6.8 10.2133 7.06667C10.3378 7.33333 10.4 7.63556 10.4 7.97333C10.4 8.32889 10.3378 8.64 10.2133 8.90667C10.0889 9.17333 9.92 9.43111 9.70667 9.68C9.49333 9.91111 9.23556 10.0889 8.93333 10.2133Z"
    fill="currentColor" />
</svg>
