<svg width="18" height="14" viewBox="0 0 18 14" fill="none" xmlns="http://www.w3.org/2000/svg">
  <path opacity="0.7"
    d="M2.09483 3.61887V8.32076H4.75862V0H2.66379C2.62931 0.651572 2.35345 1.12264 1.83621 1.41321C1.31897 1.70377 0.706897 1.84906 0 1.84906V3.61887H2.09483ZM10.1121 0L3 14H6L13.1379 0H10.1121ZM10.2672 14H18V11.9132H13.9655C13.9655 11.8252 14.1724 11.6887 14.5862 11.5038C15 11.3189 15.4483 11.1119 15.931 10.883C16.4138 10.6541 16.8621 10.2975 17.2759 9.81321C17.6897 9.32893 17.8966 8.76981 17.8966 8.13585C17.8966 6.37484 16.6724 5.49434 14.2241 5.49434C12.9828 5.49434 12.0431 5.81132 11.4052 6.44528C10.7155 7.06164 10.3966 7.95975 10.4483 9.13962H12.8534C12.8362 8.64654 12.9397 8.2327 13.1638 7.89811C13.3879 7.56352 13.7414 7.39623 14.2241 7.39623C14.5172 7.39623 14.7586 7.49308 14.9483 7.68679C15.1379 7.8805 15.2328 8.13585 15.2328 8.45283C15.2328 8.62893 15.1595 8.80063 15.0129 8.96793C14.8664 9.13522 14.7328 9.25849 14.6121 9.33774C14.4914 9.41698 14.3103 9.51824 14.069 9.64151C13.9828 9.69434 13.7328 9.83962 13.319 10.0774C12.9052 10.3151 12.6336 10.478 12.5043 10.566C12.375 10.6541 12.1466 10.817 11.819 11.0547C11.4914 11.2925 11.2629 11.495 11.1336 11.6623C11.0043 11.8296 10.8491 12.0409 10.6681 12.2962C10.4871 12.5516 10.3707 12.8201 10.319 13.1019C10.2672 13.3836 10.25 13.683 10.2672 14Z"
    fill="currentColor" />
</svg>
