<svg width="18" height="19" viewBox="0 0 18 19" fill="none" xmlns="http://www.w3.org/2000/svg">
  <path opacity="0.7"
    d="M3.26132 0.347176L11.446 8.64784C11.6969 8.90033 11.8223 9.17386 11.8223 9.46844C11.8223 9.80509 11.6969 10.0786 11.446 10.289L3.26132 18.5897C2.98955 18.8212 2.70732 18.9369 2.41463 18.9369C2.12195 18.9369 1.83972 18.8212 1.56794 18.5897L0.344948 17.3272C0.114983 17.0537 0 16.7802 0 16.5066C0 16.2331 0.114983 15.9596 0.344948 15.686L6.58537 9.53156L0.344948 3.25083C0.114983 3.01938 0 2.74585 0 2.43023C0 2.13566 0.114983 1.85161 0.344948 1.57807L1.56794 0.347176C1.83972 0.115725 2.12195 0 2.41463 0C2.70732 0 2.98955 0.115725 3.26132 0.347176ZM16.8084 0C17.1429 0 17.4251 0.115725 17.6551 0.347176C17.885 0.578627 18 0.86268 18 1.19934V17.8007C18 18.1373 17.885 18.4214 17.6551 18.6528C17.4251 18.8843 17.1429 19 16.8084 19L15.0836 18.9684C14.7282 18.9684 14.446 18.8632 14.2369 18.6528C14.0279 18.4424 13.9233 18.1584 13.9233 17.8007V1.16777C13.9233 0.831118 14.0279 0.557586 14.2369 0.347176C14.446 0.136766 14.7282 0.0315615 15.0836 0.0315615L16.8084 0Z"
    fill="currentColor" />
</svg>
