<svg width="18" height="18" viewBox="0 0 18 18" fill="none" xmlns="http://www.w3.org/2000/svg">
  <path opacity="0.7"
    d="M14.5959 0C15.2618 0 15.8418 0.241655 16.3358 0.724964C16.8299 1.20827 17.0769 1.79361 17.0769 2.48099V14.5959C17.0769 15.2618 16.8299 15.8418 16.3358 16.3358C15.8418 16.8299 15.2618 17.0769 14.5959 17.0769H2.48099C1.81509 17.0769 1.23512 16.8353 0.741074 16.352C0.247025 15.8687 0 15.2833 0 14.5959V2.48099C0 1.81509 0.247025 1.23512 0.741074 0.741074C1.23512 0.247025 1.81509 0 2.48099 0H14.5959ZM13.5327 9.50508V7.57184C13.5327 7.46444 13.5004 7.37852 13.436 7.31408C13.3716 7.24964 13.2964 7.21742 13.2105 7.21742H9.85951V3.86647C9.85951 3.78055 9.82729 3.70537 9.76285 3.64093C9.6984 3.57649 9.61248 3.54427 9.50508 3.54427H7.57184C7.46444 3.54427 7.37852 3.57649 7.31408 3.64093C7.24964 3.70537 7.21742 3.78055 7.21742 3.86647V7.21742H3.86647C3.78055 7.21742 3.70537 7.24964 3.64093 7.31408C3.57649 7.37852 3.54427 7.46444 3.54427 7.57184V9.50508C3.54427 9.61248 3.57649 9.6984 3.64093 9.76285C3.70537 9.82729 3.78055 9.85951 3.86647 9.85951H7.21742V13.2105C7.21742 13.2964 7.24964 13.3716 7.31408 13.436C7.37852 13.5004 7.46444 13.5327 7.57184 13.5327H9.50508C9.61248 13.5327 9.6984 13.5004 9.76285 13.436C9.82729 13.3716 9.85951 13.2964 9.85951 13.2105V9.85951H13.2105C13.2964 9.85951 13.3716 9.82729 13.436 9.76285C13.5004 9.6984 13.5327 9.61248 13.5327 9.50508Z"
    fill="currentColor" />
</svg>
