<svg width="11" height="19" viewBox="0 0 11 19" fill="none" xmlns="http://www.w3.org/2000/svg">
  <path opacity="0.7"
    d="M10.6782 10.3233L3.0133 18.6517C2.79876 18.8839 2.54521 19 2.25266 19C1.97961 19 1.71631 18.8839 1.46277 18.6517L0.321809 17.385C0.10727 17.1106 0 16.8361 0 16.5617C0 16.2872 0.10727 16.0128 0.321809 15.7383L6.11436 9.56333L0.321809 3.26167C0.10727 3.02944 0 2.755 0 2.43833C0 2.14278 0.10727 1.85778 0.321809 1.58333L1.46277 0.348333C1.71631 0.116111 1.97961 0 2.25266 0C2.54521 0 2.79876 0.116111 3.0133 0.348333L10.6782 8.67667C10.8927 8.95111 11 9.22556 11 9.5C11 9.81667 10.8927 10.0911 10.6782 10.3233Z"
    fill="currentColor" />
</svg>
