<svg width="20" height="19" viewBox="0 0 20 19" fill="none" xmlns="http://www.w3.org/2000/svg">
  <g opacity="0.7">
    <path
      d="M20 15.0617C20 11.895 19.5245 10.1414 18.5736 9.80063L15.2049 8.38766C14.699 8.12711 14.3753 7.82648 14.2337 7.48576C14.7193 6.96466 15.043 6.40348 15.2049 5.80222L15.4173 5.68196C15.6803 4.98048 15.7916 4.29905 15.7511 3.63766L15.5994 3.51741C15.6601 2.55538 15.5792 1.86392 15.3566 1.44304C15.1138 1.04219 14.7446 0.706487 14.2489 0.435918C13.7532 0.165348 13.2726 0.020041 12.8073 0H12.4431C11.9777 0.020041 11.4972 0.165348 11.0015 0.435918C10.5058 0.706487 10.1467 1.04219 9.92413 1.44304C9.68134 1.84388 9.59029 2.52532 9.65099 3.48734C10.1973 3.86814 10.5817 4.25897 10.8042 4.65981C11.047 5.14082 11.1684 5.83228 11.1684 6.73418L11.2595 6.82437L11.2898 7.18513C11.3303 7.98681 11.1988 8.77848 10.8953 9.56013L10.8042 9.8307L10.6222 9.95095C10.4805 10.3317 10.2782 10.7126 10.0152 11.0934C10.0961 11.1535 10.177 11.2036 10.258 11.2437L13.6267 12.6566C14.436 12.9573 14.9924 13.8692 15.2959 15.3924H20V15.0617Z"
      fill="currentColor" />
    <path
      d="M14.7496 18.6693C14.7496 15.5026 14.2742 13.7489 13.3232 13.4082L9.92413 11.9953C9.43854 11.7347 9.12494 11.4341 8.98331 11.0934C9.46889 10.5723 9.79262 10.0111 9.95448 9.40981L10.1366 9.28956C10.4198 8.56804 10.5311 7.8866 10.4704 7.24525L10.3187 7.125C10.4198 6.20306 10.3389 5.5116 10.0759 5.05063C9.85331 4.64979 9.49418 4.31408 8.99848 4.04351C8.50278 3.77294 8.02226 3.62764 7.5569 3.60759H7.19272C6.70713 3.62764 6.21649 3.77294 5.72079 4.04351C5.22509 4.31408 4.86596 4.64979 4.6434 5.05063C4.42084 5.43143 4.33991 6.12289 4.40061 7.125L4.24886 7.24525C4.2084 7.90665 4.31968 8.58808 4.5827 9.28956L4.79514 9.40981C4.95701 10.0111 5.28073 10.5723 5.76631 11.0934C5.58422 11.4742 5.2605 11.7748 4.79514 11.9953L1.4264 13.4082C0.475469 13.7489 0 15.5026 0 18.6693V19H14.7496V18.6693Z"
      fill="currentColor" />
  </g>
</svg>
