<svg width="11" height="18" viewBox="0 0 11 18" fill="none" xmlns="http://www.w3.org/2000/svg">
  <path opacity="0.7"
    d="M0.321809 9.78L7.9867 17.67C8.20124 17.89 8.45479 18 8.74734 18C9.02039 18 9.28369 17.89 9.53723 17.67L10.6782 16.47C10.8927 16.21 11 15.95 11 15.69C11 15.43 10.8927 15.17 10.6782 14.91L4.88564 9.06L10.6782 3.09C10.8927 2.87 11 2.61 11 2.31C11 2.03 10.8927 1.76 10.6782 1.5L9.53723 0.33C9.28369 0.11 9.02039 0 8.74734 0C8.45479 0 8.20124 0.11 7.9867 0.33L0.321809 8.22C0.10727 8.48 0 8.74 0 9C0 9.3 0.10727 9.56 0.321809 9.78Z"
    fill="currentColor" />
</svg>
