<svg width="18" height="21" viewBox="0 0 18 21" fill="none" xmlns="http://www.w3.org/2000/svg">
  <path
    d="M10.2642 3.18C12.4515 3.48 14.2876 4.47 15.7726 6.15C17.2575 7.83 18 9.79 18 12.03C18 14.51 17.1221 16.625 15.3662 18.375C13.6104 20.125 11.4883 21 9 21C6.51171 21 4.38963 20.125 2.63378 18.375C0.877926 16.625 0 14.51 0 12.03C0 9.79 0.742475 7.83 2.22742 6.15C3.71237 4.47 5.5485 3.48 7.73579 3.18V2.37H6.26087V0H11.7391V2.37H10.2642V3.18ZM4.7408 16.29C5.91472 17.47 7.33445 18.06 9 18.06C10.6656 18.06 12.0903 17.47 13.2742 16.29C14.4582 15.11 15.0502 13.69 15.0502 12.03C15.0502 10.37 14.4582 8.955 13.2742 7.785C12.0903 6.615 10.6656 6.03 9 6.03C7.33445 6.03 5.91472 6.615 4.7408 7.785C3.56689 8.955 2.97993 10.37 2.97993 12.03C2.97993 13.69 3.56689 15.11 4.7408 16.29ZM8.21739 8.01H9.81271L10.5953 12.9L9 14.43L7.40468 12.9L8.21739 8.01Z"
    fill="currentColor" />
</svg>
